<svg width="24" height="24" viewBox="0 0 24 24" fill="none" xmlns="http://www.w3.org/2000/svg">
<path d="M11 21.5001H15C17.828 21.5001 19.243 21.5001 20.121 20.6211C21 19.7431 21 18.3281 21 15.5001V14.5001C21 11.6721 21 10.2571 20.121 9.3791C19.243 8.5001 17.828 8.5001 15 8.5001H3M3 8.5001V13.5001M3 8.5001C2.99939 8.24162 3.07035 7.98801 3.20503 7.76738C3.3397 7.54675 3.53283 7.36771 3.763 7.2501L12.653 2.6781C12.8985 2.55172 13.1723 2.49058 13.4482 2.50057C13.7242 2.51055 13.9929 2.59133 14.2286 2.73513C14.4643 2.87894 14.659 3.08094 14.7941 3.32173C14.9292 3.56252 15.0001 3.834 15 4.1101V8.4981" stroke="#CBD5E1" stroke-width="1.5" stroke-linecap="round" stroke-linejoin="round"/>
<path d="M17.5 15.5C17.6326 15.5 17.7598 15.4473 17.8536 15.3536C17.9473 15.2598 18 15.1326 18 15C18 14.8674 17.9473 14.7402 17.8536 14.6464C17.7598 14.5527 17.6326 14.5 17.5 14.5M17.5 15.5C17.3674 15.5 17.2402 15.4473 17.1464 15.3536C17.0527 15.2598 17 15.1326 17 15C17 14.8674 17.0527 14.7402 17.1464 14.6464C17.2402 14.5527 17.3674 14.5 17.5 14.5M17.5 15.5V14.5M10 18H6.5M6.5 18H3M6.5 18V14.5M6.5 18V21.5" stroke="#CBD5E1" stroke-width="1.5" stroke-linecap="round" stroke-linejoin="round"/>
</svg>
