<svg width="10" height="15" viewBox="0 0 10 15" fill="none" xmlns="http://www.w3.org/2000/svg">
<path d="M0 13.1641L2.38281 6.5625C2.79948 6.97917 3.29427 7.2526 3.86719 7.38281L1.5625 13.7109L0.195312 15L0 13.1641ZM6.99219 6.5625L9.41406 13.1641L9.17969 15L7.8125 13.7109L5.50781 7.38281C6.08073 7.2526 6.57552 6.97917 6.99219 6.5625ZM7.1875 4.17969C7.1875 4.6224 7.07031 5.03906 6.83594 5.42969C6.6276 5.79427 6.32812 6.09375 5.9375 6.32812C5.57292 6.5625 5.15625 6.67969 4.6875 6.67969C4.21875 6.67969 3.78906 6.5625 3.39844 6.32812C3.03385 6.09375 2.73438 5.79427 2.5 5.42969C2.29167 5.03906 2.1875 4.6224 2.1875 4.17969C2.1875 3.63281 2.34375 3.15104 2.65625 2.73438C2.96875 2.29167 3.3724 1.99219 3.86719 1.83594V0H5.50781V1.83594C6.0026 1.99219 6.40625 2.29167 6.71875 2.73438C7.03125 3.15104 7.1875 3.63281 7.1875 4.17969ZM4.6875 5C4.92188 5 5.11719 4.92188 5.27344 4.76562C5.42969 4.58333 5.50781 4.38802 5.50781 4.17969C5.50781 3.94531 5.42969 3.75 5.27344 3.59375C5.11719 3.41146 4.92188 3.32031 4.6875 3.32031C4.45312 3.32031 4.25781 3.41146 4.10156 3.59375C3.94531 3.75 3.86719 3.94531 3.86719 4.17969C3.86719 4.38802 3.94531 4.58333 4.10156 4.76562C4.25781 4.92188 4.45312 5 4.6875 5Z" fill="#818CF8"/>
</svg>
