<svg width="25" height="28" viewBox="0 0 25 28" fill="none" xmlns="http://www.w3.org/2000/svg">
<path d="M6.17424 23.7125C5.36439 23.7125 4.67602 23.429 4.10913 22.8621C3.54224 22.2952 3.25879 21.6069 3.25879 20.797V17.8816H6.17424V4.27611L7.63197 5.73384L9.08969 4.27611L10.5474 5.73384L12.0051 4.27611L13.4629 5.73384L14.9206 4.27611L16.3783 5.73384L17.8361 4.27611L19.2938 5.73384L20.7515 4.27611V20.797C20.7515 21.6069 20.4681 22.2952 19.9012 22.8621C19.3343 23.429 18.6459 23.7125 17.8361 23.7125H6.17424ZM17.8361 21.7688C18.1114 21.7688 18.3422 21.6757 18.5285 21.4894C18.7147 21.3032 18.8079 21.0724 18.8079 20.797V7.19156H8.11788V17.8816H16.8642V20.797C16.8642 21.0724 16.9574 21.3032 17.1436 21.4894C17.3299 21.6757 17.5607 21.7688 17.8361 21.7688ZM9.08969 11.0788V9.1352H14.9206V11.0788H9.08969ZM9.08969 13.9943V12.0507H14.9206V13.9943H9.08969ZM16.8642 11.0788C16.5889 11.0788 16.3581 10.9857 16.1718 10.7994C15.9855 10.6132 15.8924 10.3824 15.8924 10.107C15.8924 9.83167 15.9855 9.60086 16.1718 9.4146C16.3581 9.22833 16.5889 9.1352 16.8642 9.1352C17.1396 9.1352 17.3704 9.22833 17.5567 9.4146C17.7429 9.60086 17.8361 9.83167 17.8361 10.107C17.8361 10.3824 17.7429 10.6132 17.5567 10.7994C17.3704 10.9857 17.1396 11.0788 16.8642 11.0788ZM16.8642 13.9943C16.5889 13.9943 16.3581 13.9012 16.1718 13.7149C15.9855 13.5286 15.8924 13.2978 15.8924 13.0225C15.8924 12.7471 15.9855 12.5163 16.1718 12.3301C16.3581 12.1438 16.5889 12.0507 16.8642 12.0507C17.1396 12.0507 17.3704 12.1438 17.5567 12.3301C17.7429 12.5163 17.8361 12.7471 17.8361 13.0225C17.8361 13.2978 17.7429 13.5286 17.5567 13.7149C17.3704 13.9012 17.1396 13.9943 16.8642 13.9943ZM6.17424 21.7688H14.9206V19.8252H5.20242V20.797C5.20242 21.0724 5.29556 21.3032 5.48182 21.4894C5.66809 21.6757 5.89889 21.7688 6.17424 21.7688ZM5.20242 21.7688C5.20242 21.7688 5.20242 21.6757 5.20242 21.4894C5.20242 21.3032 5.20242 21.0724 5.20242 20.797V19.8252V21.7688Z" fill="#135BEC"/>
</svg>
